<?xml version="1.0" encoding="UTF-8"?>
<svg width="150px" height="40px" viewBox="0 0 150 40" version="1.1" xmlns="http://www.w3.org/2000/svg" xmlns:xlink="http://www.w3.org/1999/xlink">
    <!-- Generator: Sketch 53.1 (72631) - https://sketchapp.com -->
    <title>logo</title>
    <desc>Created with Sketch.</desc>
    <g id="Page-1" stroke="none" stroke-width="1" fill="none" fill-rule="evenodd">
        <g id="logo" fill-rule="nonzero">
            <g id="logo-3">
                <g id="logo" transform="translate(11.000000, 5.000000)">
                    <g id="分组-5">
                        <path d="M25.5106233,24.3522074 L28.0869159,25.8351195 L15.7996738,31.8351084 C15.5712921,31.9466295 15.3040258,31.9466295 15.0756442,31.8351084 L2.78183409,25.8319123 L5.35812666,24.3490002 L15.437659,29.2709413 L25.5106233,24.3522074 Z M26.6650727,22.6480911 L28.2815027,5.56589829 L16.460177,2.54130766 L16.460177,1.2101431e-13 L30.2568584,3.53000285 C30.6489605,3.63032565 30.909665,4.00002829 30.8716443,4.40182525 L29.0169617,24.0018367 L26.6650727,22.6480911 Z M4.20961817,22.6414644 L1.85772919,23.99521 L0.00367367431,4.40182525 C-0.0343470095,4.00002829 0.22635743,3.63032565 0.618459579,3.53000285 L14.4026549,0.00319467827 L14.4026549,2.54450234 L2.59381529,5.56589829 L4.20961817,22.6414644 Z" id="合并形状" fill="#FFFFFF"></path>
                        <path d="M10.7209781,14.0416167 L15.4981672,16.3753661 L20.2575781,14.043609 L20.5670906,10.1841991 L22.2212389,9.74787545 L21.3155401,21.2181039 L19.6150442,22.0555678 L20.1030081,15.9709918 L15.4992144,18.2265079 L10.8807757,15.9703111 L11.3849558,22.0555678 L9.69875015,21.2151078 L8.77876106,9.74787545 L10.3999686,10.1671581 L10.7209781,14.0416167 Z" id="合并形状-copy" fill="#00FFF5"></path>
                    </g>
                    <g transform="translate(45.000000, 4.000000)" fill="#00FFF5">
                        <path d="M72.0963855,11.7864178 C74.804577,11.7864178 77,13.4464855 77,15.4942829 C77,17.5420803 74.804577,19.2021481 72.0963855,19.2021481 C69.3881941,19.2021481 67.1927711,17.5420803 67.1927711,15.4942829 L70.7661896,15.4942829 C70.7614584,15.5312387 70.7590361,15.5687212 70.7590361,15.6066425 C70.7590361,16.2271871 71.4076838,16.730238 72.2078313,16.730238 C73.0079788,16.730238 73.6566265,16.2271871 73.6566265,15.6066425 C73.6566265,14.9860978 73.0079788,14.483047 72.2078313,14.483047 C72.1703329,14.483047 72.1331673,14.4841518 72.0963855,14.4863218 L72.0963855,14.483047 C69.3881941,14.483047 67.1927711,12.8229792 67.1927711,10.7751818 C67.1927711,8.72738441 69.3881941,7.06731663 72.0963855,7.06731663 C74.804577,7.06731663 77,8.72738441 77,10.7751818 L73.5380132,10.7751818 C73.5155733,10.1699222 72.8787241,9.68463322 72.0963855,9.68463322 C71.2998586,9.68463322 70.654146,10.1876841 70.654146,10.8082287 C70.654146,11.4287734 71.2998586,11.7864486 72.0963855,11.7864486 Z" id="合并形状-copy-5"></path>
                        <path d="M36.8433735,18.3585085 C36.0302792,18.7886192 35.1062949,19.0316957 34.126506,19.0316957 C30.8693568,19.0316957 28.2289157,16.3454042 28.2289157,13.0316957 C28.2289157,9.71798715 30.8693568,7.03169565 34.126506,7.03169565 C35.1062949,7.03169565 36.0302792,7.27477207 36.8433735,7.70488279 L36.8433735,1.1144233 L40.0240964,-8.52651283e-14 L40.0240964,19.0316957 L36.8433735,19.0316957 L36.8433735,18.3585085 Z M34.1927711,15.6609091 C35.6566584,15.6609091 36.8433735,14.4535871 36.8433735,12.9642799 C36.8433735,11.4749727 35.6566584,10.2676507 34.1927711,10.2676507 C32.7288838,10.2676507 31.5421687,11.4749727 31.5421687,12.9642799 C31.5421687,14.4535871 32.7288838,15.6609091 34.1927711,15.6609091 Z" id="合并形状"></path>
                        <path d="M65.0722892,13.5392267 C65.0722892,16.6667718 62.5801874,19.2021481 59.5060241,19.2021481 C56.4318608,19.2021481 53.939759,16.6667718 53.939759,13.5392267 L53.939759,7.06731663 L57.1204819,7.06731663 L57.1204819,13.5392267 C57.1204824,13.5401255 57.1204819,13.5410244 57.1204819,13.5419234 C57.1204819,14.8822998 58.1885255,15.9688897 59.5060241,15.9688897 C60.8235227,15.9688897 61.8915663,14.8822998 61.8915663,13.5419234 C61.8915663,13.5410244 61.8915658,13.5401255 61.8915648,13.5392267 L61.8915663,7.06731663 L65.0722892,7.06731663 L65.0722892,13.5392267 Z" id="合并形状-copy-7"></path>
                        <path d="M48.9036145,19.0673166 C45.9026455,19.0673166 43.4698795,16.5923065 43.4698795,13.5392267 L46.5127711,13.5392267 C46.5127711,14.8825818 47.5831881,15.9715863 48.9036145,15.9715863 L48.9036145,19.0673166 Z M48.9036145,15.966193 L50.8915663,15.966193 L50.8915663,19.0673166 L48.9036145,19.0673166 L48.9036145,15.966193 Z M43.4698795,7.20214809 L46.5180723,7.20214809 L46.5180723,13.5392267 L43.4698795,13.5392267 L43.4698795,7.20214809 Z" id="合并形状-copy-8" transform="translate(47.180723, 13.134732) scale(-1, 1) rotate(-180.000000) translate(-47.180723, -13.134732) "></path>
                        <path d="M3.31325301,8.55046269 L9.93975904,8.55046269 L9.93975904,2.61787843 L13.253012,2.61787843 L13.253012,19.0673166 L9.93975904,19.0673166 L9.93975904,11.3819234 L3.31325301,11.3819234 L3.31325301,19.0673166 L0,19.0673166 L0,2.61787843 L3.31325301,2.61787843 L3.31325301,8.55046269 Z" id="合并形状-copy-9"></path>
                        <path d="M15.5743625,7.20214809 L18.8999398,7.20214809 L21.5265588,14.3559921 L24.1303451,7.20214809 L27.4559224,7.20214809 L22.6929996,20.2881707 C21.6480681,23.1590965 18.45323,24.6319292 15.557129,23.5778347 L16.6166579,20.6668029 C17.8909423,21.1306045 19.2966711,20.4825581 19.756441,19.2193508 L19.8710288,18.9045233 L15.5743625,7.20214809 Z" id="合并形状-copy-10"></path>
                    </g>
                </g>
            </g>
        </g>
    </g>
</svg>